<svg width="25" height="26" viewBox="0 0 25 26" fill="none" xmlns="http://www.w3.org/2000/svg">
<path d="M20.1172 4.28174C20.2578 4.28174 20.3828 4.30518 20.4922 4.35205C20.6016 4.39893 20.7031 4.46924 20.7969 4.56299C20.8906 4.65674 20.9609 4.7583 21.0078 4.86768C21.0547 4.97705 21.0781 5.10205 21.0781 5.24268V20.4771C21.0781 20.6177 21.0547 20.7427 21.0078 20.8521C20.9609 20.9614 20.8906 21.063 20.7969 21.1567C20.7031 21.2505 20.6016 21.3208 20.4922 21.3677C20.3828 21.4146 20.2578 21.438 20.1172 21.438H15.7578V14.7817H17.9844L18.3125 12.2036H15.7578V10.5396C15.7578 10.3364 15.7812 10.1567 15.8281 10.0005C15.875 9.84424 15.9375 9.71143 16.0156 9.60205C16.1094 9.5083 16.2422 9.43408 16.4141 9.37939C16.5859 9.32471 16.7969 9.29736 17.0469 9.29736H18.4062V6.97705C18.1719 6.9458 17.8906 6.92236 17.5625 6.90674C17.2344 6.89111 16.8516 6.8833 16.4141 6.8833C15.9141 6.8833 15.4609 6.95752 15.0547 7.10596C14.6484 7.25439 14.2969 7.47705 14 7.77393C13.6875 8.0708 13.457 8.43018 13.3086 8.85205C13.1602 9.27393 13.0859 9.75049 13.0859 10.2817V12.2036H10.8594V14.7817H13.0859V21.438H4.88281C4.74219 21.438 4.61719 21.4146 4.50781 21.3677C4.39844 21.3208 4.29688 21.2505 4.20312 21.1567C4.10938 21.063 4.03906 20.9614 3.99219 20.8521C3.94531 20.7427 3.92188 20.6177 3.92188 20.4771V5.24268C3.92188 5.10205 3.94531 4.97705 3.99219 4.86768C4.03906 4.7583 4.10938 4.65674 4.20312 4.56299C4.29688 4.46924 4.39844 4.39893 4.50781 4.35205C4.61719 4.30518 4.74219 4.28174 4.88281 4.28174H20.1172Z" fill="white"/>
</svg>
