<svg width="19" height="18" viewBox="0 0 19 18" fill="none" xmlns="http://www.w3.org/2000/svg">
<path d="M9.5 6.00049C8.71875 6.00049 8.04688 6.28174 7.48438 6.84424C6.92188 7.40674 6.64062 8.07861 6.64062 8.85986C6.64062 9.64111 6.92188 10.313 7.48438 10.8755C8.04688 11.438 8.71875 11.7192 9.5 11.7192C10.2812 11.7192 10.9531 11.438 11.5156 10.8755C12.0781 10.313 12.3594 9.64111 12.3594 8.85986C12.3594 8.07861 12.0781 7.40674 11.5156 6.84424C10.9531 6.28174 10.2812 6.00049 9.5 6.00049ZM18.0781 8.85986C18.0781 8.26611 18.0742 7.67627 18.0664 7.09033C18.0586 6.50439 18.0391 5.91455 18.0078 5.3208C17.9766 4.6333 17.8633 3.98877 17.668 3.38721C17.4727 2.78564 17.125 2.23486 16.625 1.73486C16.125 1.23486 15.5742 0.887207 14.9727 0.691895C14.3711 0.496582 13.7266 0.383301 13.0391 0.352051C12.4453 0.320801 11.8555 0.30127 11.2695 0.293457C10.6836 0.285645 10.0938 0.281738 9.5 0.281738C8.90625 0.281738 8.31641 0.285645 7.73047 0.293457C7.14453 0.30127 6.55469 0.320801 5.96094 0.352051C5.27344 0.383301 4.62891 0.496582 4.02734 0.691895C3.42578 0.887207 2.875 1.23486 2.375 1.73486C1.875 2.23486 1.52734 2.78564 1.33203 3.38721C1.13672 3.98877 1.02344 4.6333 0.992188 5.3208C0.960938 5.91455 0.941406 6.50439 0.933594 7.09033C0.925781 7.67627 0.921875 8.26611 0.921875 8.85986C0.921875 9.45361 0.925781 10.0435 0.933594 10.6294C0.941406 11.2153 0.960938 11.8052 0.992188 12.3989C1.02344 13.0864 1.13672 13.731 1.33203 14.3325C1.52734 14.9341 1.875 15.4849 2.375 15.9849C2.875 16.4849 3.42578 16.8325 4.02734 17.0278C4.62891 17.2231 5.27344 17.3364 5.96094 17.3677C6.55469 17.3989 7.14453 17.4185 7.73047 17.4263C8.31641 17.4341 8.90625 17.438 9.5 17.438C10.0938 17.438 10.6836 17.4341 11.2695 17.4263C11.8555 17.4185 12.4453 17.3989 13.0391 17.3677C13.7266 17.3364 14.3711 17.2231 14.9727 17.0278C15.5742 16.8325 16.125 16.4849 16.625 15.9849C17.125 15.4849 17.4727 14.9341 17.668 14.3325C17.8633 13.731 17.9766 13.0864 18.0078 12.3989C18.0391 11.8052 18.0586 11.2153 18.0664 10.6294C18.0742 10.0435 18.0781 9.45361 18.0781 8.85986ZM9.5 13.2661C8.28125 13.2661 7.24219 12.8364 6.38281 11.9771C5.52344 11.1177 5.09375 10.0786 5.09375 8.85986C5.09375 7.64111 5.52344 6.60205 6.38281 5.74268C7.24219 4.8833 8.28125 4.45361 9.5 4.45361C10.7188 4.45361 11.7578 4.8833 12.6172 5.74268C13.4766 6.60205 13.9062 7.64111 13.9062 8.85986C13.9062 10.0786 13.4766 11.1177 12.6172 11.9771C11.7578 12.8364 10.7188 13.2661 9.5 13.2661ZM14.0703 5.29736C13.7891 5.29736 13.5469 5.19971 13.3438 5.00439C13.1406 4.80908 13.0391 4.5708 13.0391 4.28955C13.0391 3.99268 13.1406 3.74658 13.3438 3.55127C13.5469 3.35596 13.7891 3.2583 14.0703 3.2583C14.3516 3.2583 14.5938 3.35596 14.7969 3.55127C15 3.74658 15.1016 3.99268 15.1016 4.28955C15.1016 4.35205 15.0938 4.41455 15.0781 4.47705C15.0625 4.53955 15.0469 4.60205 15.0312 4.66455C15 4.72705 14.9648 4.78955 14.9258 4.85205C14.8867 4.91455 14.8438 4.96924 14.7969 5.01611C14.75 5.06299 14.6992 5.10596 14.6445 5.14502C14.5898 5.18408 14.5312 5.21143 14.4688 5.22705C14.4062 5.2583 14.3438 5.27783 14.2812 5.28564C14.2188 5.29346 14.1484 5.29736 14.0703 5.29736Z" fill="white"/>
</svg>
