<svg width="19" height="18" viewBox="0 0 19 18" fill="none" xmlns="http://www.w3.org/2000/svg">
<path d="M8.07031 6.79736L11.7266 8.85986L8.07031 10.9458V6.79736ZM18.0781 2.1333V15.5864C18.0781 16.1021 17.8984 16.5396 17.5391 16.8989C17.1797 17.2583 16.7422 17.438 16.2266 17.438H2.77344C2.25781 17.438 1.82031 17.2583 1.46094 16.8989C1.10156 16.5396 0.921875 16.1021 0.921875 15.5864V2.1333C0.921875 1.61768 1.10156 1.18018 1.46094 0.820801C1.82031 0.461426 2.25781 0.281738 2.77344 0.281738H16.2266C16.7422 0.281738 17.1797 0.461426 17.5391 0.820801C17.8984 1.18018 18.0781 1.61768 18.0781 2.1333ZM16.4609 8.85986C16.4609 8.85986 16.4492 8.43799 16.4258 7.59424C16.4023 6.75049 16.3203 6.04736 16.1797 5.48486C16.1016 5.18799 15.9492 4.93018 15.7227 4.71143C15.4961 4.49268 15.2344 4.34424 14.9375 4.26611C14.6719 4.18799 14.2344 4.12549 13.625 4.07861C13.0312 4.04736 12.4297 4.02002 11.8203 3.99658C11.2109 3.97314 10.6719 3.96143 10.2031 3.96143C9.73438 3.96143 9.5 3.96143 9.5 3.96143C9.5 3.96143 9.26562 3.96143 8.79688 3.96143C8.32812 3.96143 7.78906 3.97314 7.17969 3.99658C6.57031 4.02002 5.96875 4.04736 5.375 4.07861C4.76562 4.12549 4.32812 4.18799 4.0625 4.26611C3.76562 4.34424 3.50391 4.49268 3.27734 4.71143C3.05078 4.93018 2.89844 5.18799 2.82031 5.48486C2.67969 6.03174 2.59766 6.73096 2.57422 7.58252C2.55078 8.43408 2.53906 8.85986 2.53906 8.85986C2.53906 8.85986 2.55078 9.28564 2.57422 10.1372C2.59766 10.9888 2.67969 11.688 2.82031 12.2349C2.89844 12.5474 3.05078 12.8091 3.27734 13.02C3.50391 13.231 3.76562 13.3833 4.0625 13.4771C4.32812 13.5396 4.76562 13.5942 5.375 13.6411C5.96875 13.6724 6.57031 13.6997 7.17969 13.7231C7.78906 13.7466 8.32812 13.7583 8.79688 13.7583C9.26562 13.7583 9.5 13.7583 9.5 13.7583C9.5 13.7583 9.73438 13.7583 10.2031 13.7583C10.6719 13.7583 11.2109 13.7466 11.8203 13.7231C12.4297 13.6997 13.0312 13.6724 13.625 13.6411C14.2344 13.5942 14.6719 13.5317 14.9375 13.4536C15.2344 13.3755 15.4961 13.231 15.7227 13.02C15.9492 12.8091 16.1016 12.5474 16.1797 12.2349C16.3203 11.688 16.4023 10.9888 16.4258 10.1372C16.4492 9.28564 16.4609 8.85986 16.4609 8.85986Z" fill="white"/>
</svg>
